<svg width="200" height="200" version="1.1" viewBox="0 0 53 53" xmlns="http://www.w3.org/2000/svg">
 <g>
  <rect width="53" height="53" rx="10" ry="10" fill="#c6c6c6"/>
  <path d="m6.2 12c0-1.3 0.46-2.4 1.4-3.2 0.91-0.85 2.1-1.3 3.6-1.3 1.4 0 2.6 0.42 3.5 1.2 0.91 0.86 1.4 2 1.4 3.4 0 1.2-0.44 2.3-1.3 3.1-0.91 0.86-2.1 1.3-3.6 1.3h-0.039c-1.4 0-2.6-0.43-3.5-1.3-0.88-0.86-1.3-1.9-1.3-3.2zm0.51 34v-26h8.7v26zm13 0h8.7v-15c0-0.91 0.1-1.6 0.31-2.1 0.36-0.88 0.92-1.6 1.7-2.2 0.74-0.61 1.7-0.92 2.8-0.92 2.9 0 4.4 2 4.4 5.9v14h8.7v-15c0-3.9-0.91-6.8-2.7-8.8-1.8-2-4.2-3-7.2-3-3.4 0-6 1.4-7.8 4.3v0.078h-0.039l0.039-0.078v-3.7h-8.7c0.052 0.83 0.078 3.4 0.078 7.8 0 4.3-0.026 10-0.078 18z" fill="#fff" stroke-width=".039"/>
 </g>
</svg>
