<svg width="200" height="200" version="1.1" viewBox="0 0 53 53" xmlns="http://www.w3.org/2000/svg">
 <g>
  <rect width="53" height="53" rx="10" ry="10" fill="#c6c6c6"/>
  <g transform="matrix(.2 0 0 .2 -77 -14)" fill="#fff">
   <path d="m442 142c-1.7 0-3.2 0.61-3.9 1.8-0.76 1.2-0.64 2.8 0.17 4.4l20 34c0.033 0.064 0.033 0.1 0 0.16l-31 54c-0.8 1.6-0.76 3.2 0 4.4 0.74 1.2 2 2 3.8 2h29c4.3 0 6.4-2.9 7.9-5.6 0 0 30-53 31-55-0.12-0.19-20-35-20-35-1.4-2.6-3.6-5.4-8-5.4h-29z"/>
   <path d="m564 103c-4.3 0-6.2 2.7-7.7 5.5 0 0-62 110-64 114 0.1 0.2 41 75 41 75 1.4 2.6 3.6 5.5 8.1 5.5h29c1.7 0 3.1-0.65 3.8-1.8 0.77-1.2 0.75-2.9-0.059-4.5l-41-74a0.17 0.17 0 0 1 0-0.19l64-113c0.8-1.6 0.82-3.2 0.061-4.5-0.74-1.2-2.1-1.8-3.8-1.8h-29v2e-3h3e-3z"/>
  </g>
 </g>
</svg>
